<svg aria-hidden="true" class="star-icon" xmlns="http://www.w3.org/2000/svg" width="30" height="30" viewBox="0 0 512.001 512.001" xml:space="preserve" role="img" >
	<title>star</title>
	<path class="star-icon__body" d="M395.39 494.627c-3.437 0-6.886-.798-10.061-2.418L256 426.233l-129.33 65.976a22.143 22.143 0 0 1-31.95-23.088l22.248-144.787L14.681 220.43a22.143 22.143 0 0 1 12.213-37.388L170 159.688l66.266-130.213a22.141 22.141 0 0 1 39.468 0L342 159.688l143.106 23.354a22.14 22.14 0 0 1 12.213 37.388L395.031 324.334l22.248 144.787a22.143 22.143 0 0 1-21.889 25.506z"/>
	<path class="star-icon__border" d="M395.39 502.931c-4.785 0-9.569-1.15-13.834-3.325L256 435.555l-125.555 64.05a30.584 30.584 0 0 1-13.834 3.325 30.275 30.275 0 0 1-17.836-5.768c-9.307-6.727-14.004-17.955-12.26-29.304L108.13 327.19 8.763 226.255c-8.017-8.143-10.794-19.951-7.245-30.814 3.549-10.864 12.759-18.754 24.039-20.596l138.952-22.676 64.356-126.462c5.223-10.262 15.619-16.638 27.136-16.638s21.913 6.375 27.136 16.639l64.356 126.462 138.952 22.676c11.28 1.84 20.491 9.732 24.039 20.595 3.548 10.865.772 22.672-7.245 30.816l-99.366 100.935 21.614 140.669c1.744 11.349-2.953 22.576-12.259 29.303a30.296 30.296 0 0 1-17.838 5.767zM256 416.912l133.103 67.9a13.901 13.901 0 0 0 6.288 1.511c2.93 0 5.735-.907 8.109-2.623a13.779 13.779 0 0 0 5.571-13.318l-22.88-148.905 105.211-106.873a13.792 13.792 0 0 0 3.295-14.007 13.792 13.792 0 0 0-10.928-9.361l-147.26-24.032L268.333 33.24a13.775 13.775 0 0 0-12.334-7.563c-5.234 0-9.96 2.897-12.334 7.563l-68.174 133.965-147.259 24.032a13.79 13.79 0 0 0-10.928 9.361 13.79 13.79 0 0 0 3.295 14.006L125.81 321.478l-22.88 148.904a13.78 13.78 0 0 0 5.572 13.319 13.761 13.761 0 0 0 8.108 2.622c2.174 0 4.349-.523 6.289-1.511L256 416.912z"/>
</svg>